HIERARCHY
ROOT Hips
{
	OFFSET 0.000000 100.481300 0.000000
	CHANNELS 6 Xposition Yposition Zposition Xrotation Yrotation Zrotation
	JOINT Spine
	{
		OFFSET -0.279200 12.230698 -2.892100
		CHANNELS 3 Xrotation Yrotation Zrotation
		JOINT Spine1
		{
			OFFSET -0.325700 14.269203 -3.374200
			CHANNELS 3 Xrotation Yrotation Zrotation
			JOINT Spine2
			{
				OFFSET -0.372300 16.307602 -0.352600
				CHANNELS 3 Xrotation Yrotation Zrotation
				JOINT Neck
				{
					OFFSET -0.418800 17.814194 8.416900
					CHANNELS 3 Xrotation Yrotation Zrotation
					JOINT Head
					{
						OFFSET 0.000000 7.031097 3.806800
						CHANNELS 3 Xrotation Yrotation Zrotation
						JOINT HeadTop_End
						{
							OFFSET 0.000000 24.646606 12.978600
							CHANNELS 3 Xrotation Yrotation Zrotation
							End Site
							{
								OFFSET 0.000000 27.854965 0.000000
							}
						}
					}
				}
				JOINT LeftShoulder
				{
					OFFSET 16.952999 14.495407 -7.737500
					CHANNELS 3 Xrotation Yrotation Zrotation
					JOINT LeftArm
					{
						OFFSET 9.308998 -2.777710 0.208600
						CHANNELS 3 Xrotation Yrotation Zrotation
						JOINT LeftForeArm
						{
							OFFSET 29.972298 0.000000 0.000000
							CHANNELS 3 Xrotation Yrotation Zrotation
							JOINT LeftHand
							{
								OFFSET 26.026505 0.000000 0.000000
								CHANNELS 3 Xrotation Yrotation Zrotation
								JOINT LeftHandThumb1
								{
									OFFSET 12.240501 -7.147949 9.207150
									CHANNELS 3 Xrotation Yrotation Zrotation
									JOINT LeftHandThumb2
									{
										OFFSET 4.138618 -2.389435 2.389433
										CHANNELS 3 Xrotation Yrotation Zrotation
										JOINT LeftHandThumb3
										{
											OFFSET 2.726913 -1.574387 1.574386
											CHANNELS 3 Xrotation Yrotation Zrotation
											JOINT LeftHandThumb4
											{
												OFFSET 3.941010 -2.275345 2.275342
												CHANNELS 3 Xrotation Yrotation Zrotation
												End Site
												{
													OFFSET -0.005798 5.087799 0.009903
												}
											}
										}
									}
								}
								JOINT LeftHandIndex1
								{
									OFFSET 24.424698 -1.985611 5.953459
									CHANNELS 3 Xrotation Yrotation Zrotation
									JOINT LeftHandIndex2
									{
										OFFSET 6.426697 0.000000 0.000000
										CHANNELS 3 Xrotation Yrotation Zrotation
										JOINT LeftHandIndex3
										{
											OFFSET 5.337898 0.000000 0.000000
											CHANNELS 3 Xrotation Yrotation Zrotation
											JOINT LeftHandIndex4
											{
												OFFSET 4.409401 0.000000 0.000000
												CHANNELS 3 Xrotation Yrotation Zrotation
												End Site
												{
													OFFSET 0.000000 4.409363 0.014373
												}
											}
										}
									}
								}
								JOINT LeftHandMiddle1
								{
									OFFSET 23.810104 0.000000 0.000000
									CHANNELS 3 Xrotation Yrotation Zrotation
									JOINT LeftHandMiddle2
									{
										OFFSET 7.176498 0.000000 0.000000
										CHANNELS 3 Xrotation Yrotation Zrotation
										JOINT LeftHandMiddle3
										{
											OFFSET 6.774902 0.000000 0.000000
											CHANNELS 3 Xrotation Yrotation Zrotation
											JOINT LeftHandMiddle4
											{
												OFFSET 5.403328 0.000000 0.000000
												CHANNELS 3 Xrotation Yrotation Zrotation
												End Site
												{
													OFFSET -0.027702 5.403244 0.017414
												}
											}
										}
									}
								}
								JOINT LeftHandRing1
								{
									OFFSET 22.908401 -0.839279 -6.020567
									CHANNELS 3 Xrotation Yrotation Zrotation
									JOINT LeftHandRing2
									{
										OFFSET 6.337502 0.000000 0.000000
										CHANNELS 3 Xrotation Yrotation Zrotation
										JOINT LeftHandRing3
										{
											OFFSET 5.779297 0.000000 0.000000
											CHANNELS 3 Xrotation Yrotation Zrotation
											JOINT LeftHandRing4
											{
												OFFSET 4.965698 0.000000 0.000000
												CHANNELS 3 Xrotation Yrotation Zrotation
												End Site
												{
													OFFSET 0.000000 4.965668 0.016186
												}
											}
										}
									}
								}
								JOINT LeftHandPinky1
								{
									OFFSET 20.037003 -1.530319 -10.950146
									CHANNELS 3 Xrotation Yrotation Zrotation
									JOINT LeftHandPinky2
									{
										OFFSET 5.254700 0.000000 0.000000
										CHANNELS 3 Xrotation Yrotation Zrotation
										JOINT LeftHandPinky3
										{
											OFFSET 4.810204 0.000000 0.000000
											CHANNELS 3 Xrotation Yrotation Zrotation
											JOINT LeftHandPinky4
											{
												OFFSET 3.647202 0.000000 0.000000
												CHANNELS 3 Xrotation Yrotation Zrotation
												End Site
												{
													OFFSET 0.000000 3.647186 0.011889
												}
											}
										}
									}
								}
							}
						}
					}
				}
				JOINT RightShoulder
				{
					OFFSET -15.141001 14.495407 -7.737500
					CHANNELS 3 Xrotation Yrotation Zrotation
					JOINT RightArm
					{
						OFFSET -9.308998 -2.777710 0.208500
						CHANNELS 3 Xrotation Yrotation Zrotation
						JOINT RightForeArm
						{
							OFFSET -29.972300 0.000000 0.000000
							CHANNELS 3 Xrotation Yrotation Zrotation
							JOINT RightHand
							{
								OFFSET -26.026505 0.000000 0.000000
								CHANNELS 3 Xrotation Yrotation Zrotation
								JOINT RightHandThumb1
								{
									OFFSET -12.240601 -7.148026 9.207092
									CHANNELS 3 Xrotation Yrotation Zrotation
									JOINT RightHandThumb2
									{
										OFFSET -4.138618 -2.389435 2.389433
										CHANNELS 3 Xrotation Yrotation Zrotation
										JOINT RightHandThumb3
										{
											OFFSET -2.726974 -1.574417 1.574421
											CHANNELS 3 Xrotation Yrotation Zrotation
											JOINT RightHandThumb4
											{
												OFFSET -3.941010 -2.275345 2.275343
												CHANNELS 3 Xrotation Yrotation Zrotation
												End Site
												{
													OFFSET 0.005814 5.087799 0.009927
												}
											}
										}
									}
								}
								JOINT RightHandIndex1
								{
									OFFSET -24.424698 -1.985657 5.953444
									CHANNELS 3 Xrotation Yrotation Zrotation
									JOINT RightHandIndex2
									{
										OFFSET -6.426697 0.000000 0.000000
										CHANNELS 3 Xrotation Yrotation Zrotation
										JOINT RightHandIndex3
										{
											OFFSET -5.337898 0.000000 0.000000
											CHANNELS 3 Xrotation Yrotation Zrotation
											JOINT RightHandIndex4
											{
												OFFSET -4.409401 0.000000 0.000000
												CHANNELS 3 Xrotation Yrotation Zrotation
												End Site
												{
													OFFSET 0.000000 4.409363 0.014408
												}
											}
										}
									}
								}
								JOINT RightHandMiddle1
								{
									OFFSET -23.810097 0.000000 0.000000
									CHANNELS 3 Xrotation Yrotation Zrotation
									JOINT RightHandMiddle2
									{
										OFFSET -7.176498 0.000000 0.000000
										CHANNELS 3 Xrotation Yrotation Zrotation
										JOINT RightHandMiddle3
										{
											OFFSET -6.774902 0.000000 0.000000
											CHANNELS 3 Xrotation Yrotation Zrotation
											JOINT RightHandMiddle4
											{
												OFFSET -5.403328 0.000000 0.000000
												CHANNELS 3 Xrotation Yrotation Zrotation
												End Site
												{
													OFFSET 0.027702 5.403244 0.017457
												}
											}
										}
									}
								}
								JOINT RightHandRing1
								{
									OFFSET -22.908302 -0.839325 -6.020576
									CHANNELS 3 Xrotation Yrotation Zrotation
									JOINT RightHandRing2
									{
										OFFSET -6.337502 0.000000 0.000000
										CHANNELS 3 Xrotation Yrotation Zrotation
										JOINT RightHandRing3
										{
											OFFSET -5.779297 0.000000 0.000000
											CHANNELS 3 Xrotation Yrotation Zrotation
											JOINT RightHandRing4
											{
												OFFSET -4.965698 0.000000 0.000000
												CHANNELS 3 Xrotation Yrotation Zrotation
												End Site
												{
													OFFSET 0.000000 4.965668 0.016226
												}
											}
										}
									}
								}
								JOINT RightHandPinky1
								{
									OFFSET -20.037003 -1.530334 -10.950259
									CHANNELS 3 Xrotation Yrotation Zrotation
									JOINT RightHandPinky2
									{
										OFFSET -5.254700 0.000000 0.000000
										CHANNELS 3 Xrotation Yrotation Zrotation
										JOINT RightHandPinky3
										{
											OFFSET -4.810204 0.000000 0.000000
											CHANNELS 3 Xrotation Yrotation Zrotation
											JOINT RightHandPinky4
											{
												OFFSET -3.647202 0.000000 0.000000
												CHANNELS 3 Xrotation Yrotation Zrotation
												End Site
												{
													OFFSET 0.000000 3.647186 0.011917
												}
											}
										}
									}
								}
							}
						}
					}
				}
			}
		}
	}
	JOINT LeftUpLeg
	{
		OFFSET 15.427100 -6.655098 0.678600
		CHANNELS 3 Xrotation Yrotation Zrotation
		JOINT LeftLeg
		{
			OFFSET 4.081073 -39.591068 13.024000
			CHANNELS 3 Xrotation Yrotation Zrotation
			JOINT LeftFoot
			{
				OFFSET -4.081074 -37.707932 -15.979700
				CHANNELS 3 Xrotation Yrotation Zrotation
				JOINT LeftToeBase
				{
					OFFSET 5.346399 -15.068900 20.645000
					CHANNELS 3 Xrotation Yrotation Zrotation
					JOINT LeftToe_End
					{
						OFFSET 2.754700 0.931300 11.300900
						CHANNELS 3 Xrotation Yrotation Zrotation
						End Site
						{
							OFFSET 0.000000 11.669021 0.000000
						}
					}
				}
			}
		}
	}
	JOINT RightUpLeg
	{
		OFFSET -15.569500 -6.655098 0.678600
		CHANNELS 3 Xrotation Yrotation Zrotation
		JOINT RightLeg
		{
			OFFSET -4.081825 -39.591045 13.023800
			CHANNELS 3 Xrotation Yrotation Zrotation
			JOINT RightFoot
			{
				OFFSET 4.081824 -37.707954 -15.979600
				CHANNELS 3 Xrotation Yrotation Zrotation
				JOINT RightToeBase
				{
					OFFSET -5.346400 -15.068900 20.645000
					CHANNELS 3 Xrotation Yrotation Zrotation
					JOINT RightToe_End
					{
						OFFSET -2.754700 0.931300 11.300900
						CHANNELS 3 Xrotation Yrotation Zrotation
						End Site
						{
							OFFSET 0.000000 11.669021 0.000000
						}
					}
				}
			}
		}
	}
}
MOTION
Frames: 5
Frame Time: 0.033333
5.072768 80.498405 -8.245230 -0.227255 -0.097116 -1.504147 18.642687 2.381221 0.179957 21.912568 2.026290 0.433810 14.394118 1.975512 0.647097 2.753458 -1.517219 0.579733 -21.379694 3.370306 0.452473 -0.000000 0.000000 -0.000000 20.199443 -16.267586 8.920350 -40.162858 -22.943181 -37.619415 -2.333313 -49.080397 -20.004910 -58.352417 -10.700909 -21.193824 37.636316 9.649475 -16.307850 2.365336 24.512045 15.524248 0.430233 19.918228 14.932539 -0.000007 0.000000 0.000002 0.996418 10.011217 -25.984883 0.761981 2.031171 -23.454928 0.893049 0.693777 -28.772578 -0.000002 0.000000 -0.000001 0.912167 9.449361 -26.094244 0.448800 2.159085 -23.482474 0.448798 2.159087 -23.482482 -0.000003 -0.000001 -0.000000 0.704759 9.226803 -26.061610 0.283817 1.908631 -23.472724 0.284787 1.907970 -23.472768 0.000000 0.000001 -0.000001 0.894727 9.102960 -26.050360 0.440265 2.154201 -23.481186 0.440262 2.154196 -23.481179 -0.000002 -0.000000 -0.000001 18.184670 13.763634 -7.439797 -29.907790 12.019584 45.735025 -38.141535 59.628166 39.401835 -13.482685 -1.374296 17.859942 41.576488 -0.925268 20.339274 5.575785 -23.460670 -19.393402 5.289902 -14.831356 -21.628817 0.000000 0.000000 -0.000002 18.008830 0.624414 41.335058 -4.612325 8.516120 36.705775 -6.507483 11.338963 17.243349 -0.000004 0.000000 -0.000003 -3.686672 -2.833870 36.410868 0.900764 -2.984179 33.466281 0.900300 -2.989979 33.465837 0.000000 0.000002 0.000001 -12.638331 -10.850187 34.132470 -8.599667 -9.326294 33.053410 -8.585906 -9.348047 33.047908 -0.000000 -0.000001 -0.000001 -16.935775 -3.890540 38.902066 0.871184 -2.944754 33.020539 1.499433 -3.739298 43.486780 0.000002 -0.000003 0.000002 -33.997301 1.047042 27.010241 44.812875 4.879024 -6.790993 -8.256063 -6.910832 -14.071085 -2.201422 -12.859572 -1.463125 -0.000000 -0.000000 0.000000 -35.790195 -11.783032 -28.489989 41.631451 2.330432 -2.201156 -6.828027 2.211365 17.756882 -7.592942 9.213480 9.978659 0.000001 0.000000 -0.000000 
5.292815 80.275269 -7.490750 -0.227625 -0.095674 -1.607073 18.617306 2.032416 -0.000412 21.867771 1.795556 0.359805 14.350507 1.728626 0.552335 2.776809 -1.448277 0.462911 -21.473013 3.075543 0.731043 0.000001 0.000000 0.000000 20.197129 -16.282841 8.903276 -39.973242 -22.494586 -36.736053 -2.377633 -49.521494 -20.062455 -58.183738 -11.220853 -20.392775 37.496140 9.474661 -16.397951 2.355377 24.271994 15.459083 0.430542 19.677283 14.865676 0.000000 0.000000 0.000001 0.940484 9.919369 -25.749277 0.701111 2.032117 -23.210292 0.832074 0.698287 -28.529422 0.000002 -0.000000 -0.000000 0.868419 9.449720 -25.840817 0.439460 2.137468 -23.233233 0.439452 2.137465 -23.233240 0.000000 -0.000000 0.000001 0.696196 9.265052 -25.813307 0.302683 1.927860 -23.224769 0.303488 1.927312 -23.224822 0.000001 -0.000000 0.000001 0.854486 9.160601 -25.803973 0.430943 2.132547 -23.231931 0.430944 2.132544 -23.231946 -0.000000 -0.000000 0.000000 18.267102 13.724489 -7.782138 -29.927884 12.223656 45.850749 -38.860307 59.962074 40.183485 -13.031555 -0.723523 17.862873 41.374581 -0.671869 20.392406 5.519851 -23.141613 -19.355136 5.221812 -14.511104 -21.611692 -0.000000 -0.000000 0.000001 18.053174 0.554224 41.016471 -4.421417 8.736276 35.432884 -6.261070 11.598803 15.967111 -0.000001 0.000002 -0.000002 -3.661400 -2.781274 36.088541 0.883769 -2.958309 33.138077 0.883239 -2.964091 33.137602 -0.000001 0.000002 -0.000001 -12.656364 -10.748013 33.817100 -8.651828 -9.246588 32.730174 -8.638199 -9.268412 32.724628 0.000000 -0.000002 -0.000001 -16.914870 -3.765535 38.600070 0.854390 -2.918711 32.692356 1.478059 -3.716846 43.158077 0.000000 -0.000002 0.000002 -34.513977 1.180189 26.886766 45.072989 3.784357 -6.862805 -8.171158 -7.068913 -13.414858 -2.583197 -12.741073 -1.038480 0.000000 -0.000000 0.000000 -37.568513 -11.079393 -27.325502 40.999160 6.097140 -2.641662 -5.265274 2.067519 17.313201 -8.075434 9.213504 9.978684 0.000000 0.000000 -0.000000 
5.457892 80.067917 -6.635285 -0.228383 -0.102467 -1.756844 18.545994 1.676340 -0.102406 21.788117 1.541451 0.297843 14.270461 1.457341 0.466897 2.779738 -1.377144 0.303081 -21.612860 2.844259 1.131577 -0.000001 0.000000 -0.000000 20.131165 -16.371035 8.602794 -39.454683 -22.290112 -35.556192 -2.426303 -50.118180 -20.125728 -58.016972 -12.037523 -19.223477 37.363372 9.309555 -16.483500 2.345767 24.044940 15.397514 0.430520 19.449409 14.802567 -0.000002 0.000001 0.000001 0.887965 9.832292 -25.526574 0.643474 2.032648 -22.978901 0.774309 0.702126 -28.299432 0.000000 -0.000000 0.000000 0.827804 9.450761 -25.601128 0.430705 2.116986 -22.997520 0.430703 2.116981 -22.997520 -0.000002 0.000000 -0.000001 0.687944 9.301192 -25.578406 0.320252 1.946244 -22.990273 0.320903 1.945807 -22.990304 0.000000 -0.000000 -0.000001 0.816207 9.214957 -25.570813 0.422211 2.112025 -22.996233 0.422213 2.112026 -22.996221 0.000001 0.000002 -0.000001 18.380983 13.673903 -8.245711 -29.900967 12.184681 45.834811 -39.406121 60.224688 40.782281 -13.078768 -0.213037 18.264196 41.167907 -0.412943 20.447645 5.462430 -22.815388 -19.315975 5.152313 -14.183608 -21.593617 0.000000 -0.000000 -0.000001 18.098145 0.482212 40.690743 -4.268228 8.905899 34.433996 -6.065495 11.798588 14.964997 -0.000001 -0.000001 -0.000000 -3.635235 -2.727619 35.758929 0.866537 -2.931755 32.802472 0.865952 -2.937546 32.801987 -0.000001 0.000003 0.000000 -12.674174 -10.643410 33.494753 -8.704682 -9.164783 32.399829 -8.691175 -9.186685 32.394252 -0.000001 0.000003 -0.000002 -16.892794 -3.637826 38.291284 0.837387 -2.891987 32.356778 1.456340 -3.693756 42.821977 -0.000000 0.000001 0.000002 -34.917952 1.245573 26.777316 45.462695 2.851034 -6.803857 -8.402366 -7.208938 -12.969391 -2.968070 -12.652764 -0.707974 -0.000000 -0.000000 -0.000000 -38.764592 -9.992195 -25.869290 40.069517 8.432512 -3.042039 -3.635975 2.383750 17.081200 -8.507023 9.213503 9.978705 -0.000000 -0.000000 0.000000 
5.456240 79.809044 -5.686324 -0.230000 -0.113698 -1.899329 18.433709 1.315145 -0.142384 21.676005 1.270655 0.262439 14.156633 1.171072 0.404758 2.772397 -1.318170 0.110539 -21.792577 2.695696 1.486626 -0.000002 0.000000 0.000000 20.033828 -16.546439 8.121289 -38.722132 -22.267457 -34.235077 -2.472365 -50.756932 -20.185815 -57.806145 -13.143097 -17.842413 37.239714 9.156173 -16.563373 2.336550 23.833788 15.340257 0.430298 19.237463 14.743914 0.000000 0.000001 0.000001 0.839316 9.751205 -25.319595 0.589856 2.032823 -22.763724 0.720496 0.705328 -28.085559 0.000003 0.000000 -0.000002 0.790389 9.452125 -25.378237 0.422641 2.097898 -22.778295 0.422650 2.097901 -22.778292 0.000001 0.000001 -0.000000 0.680098 9.334771 -25.359932 0.336443 1.963471 -22.772173 0.336940 1.963137 -22.772206 0.000001 -0.000001 0.000000 0.780369 9.265371 -25.353959 0.414177 2.092914 -22.776999 0.414177 2.092907 -22.777004 -0.000001 0.000001 -0.000001 18.502416 13.611818 -8.737034 -29.822088 11.985853 45.753993 -39.758060 60.408345 41.172517 -13.563022 0.221622 18.756808 40.962502 -0.156142 20.503429 5.405268 -22.491535 -19.277063 5.083303 -13.858596 -21.575413 0.000000 -0.000000 0.000001 18.142333 0.410467 40.367528 -4.158562 9.023676 33.730281 -5.927836 11.937007 14.258739 0.000001 -0.000002 0.000000 -3.608953 -2.674516 35.431757 0.849572 -2.905301 32.469384 0.848967 -2.911080 32.468916 -0.000001 0.000004 -0.000001 -12.691274 -10.539509 33.174939 -8.756653 -9.083283 32.072055 -8.743280 -9.105253 32.066464 0.000002 0.000001 -0.000002 -16.870207 -3.511178 37.984779 0.820655 -2.865365 32.023721 1.434911 -3.670708 42.488370 -0.000000 -0.000000 0.000002 -35.077024 0.989139 26.882084 45.945009 2.016738 -7.010650 -8.941697 -7.321446 -12.720134 -3.060009 -12.657196 -0.728502 -0.000000 -0.000000 -0.000000 -39.217355 -8.557332 -24.983910 39.232060 7.239632 -3.119423 -2.285771 4.606563 17.745834 -8.829211 9.213496 9.978684 -0.000000 -0.000000 -0.000000 
5.156580 79.470848 -4.651483 -0.232091 -0.117788 -1.975102 18.281256 0.961907 -0.141980 21.532462 1.003986 0.264890 14.010641 0.893726 0.378540 2.775441 -1.278359 -0.074340 -21.967891 2.623180 1.630363 0.000000 0.000000 0.000000 19.946384 -16.795536 7.618460 -37.969011 -22.242149 -33.119454 -2.508624 -51.295598 -20.233414 -57.488930 -14.383497 -16.556377 37.126887 9.016537 -16.636433 2.327996 23.641402 15.288178 0.429876 19.044307 14.690514 0.000001 -0.000001 0.000001 0.795403 9.677079 -25.131092 0.540962 2.032759 -22.567647 0.671508 0.707910 -27.890659 -0.000001 -0.000002 -0.000001 0.755785 9.452346 -25.175116 0.415365 2.080482 -22.578524 0.415357 2.080482 -22.578520 0.000001 0.000000 0.000001 0.672883 9.365334 -25.160825 0.351106 1.979271 -22.573423 0.351470 1.979018 -22.573439 0.000001 -0.000000 -0.000001 0.747561 9.311199 -25.156268 0.406909 2.075463 -22.577235 0.406917 2.075462 -22.577235 0.000003 -0.000001 -0.000001 18.596669 13.545683 -9.121053 -29.705531 11.678515 45.626767 -39.943704 60.520086 41.382193 -14.260508 0.595792 18.954461 40.764423 0.090990 20.558016 5.350017 -22.179670 -19.239576 5.016500 -13.545507 -21.558293 0.000000 0.000001 -0.000003 18.184544 0.341129 40.056218 -4.086716 9.099292 33.274158 -5.839530 12.025620 13.800828 0.000002 -0.000001 -0.000001 -3.583362 -2.623508 35.116612 0.833361 -2.879727 32.148550 0.832752 -2.885512 32.148085 0.000002 0.000006 -0.000000 -12.707166 -10.439345 32.867000 -8.806255 -9.004503 31.756514 -8.793011 -9.026548 31.750855 0.000001 0.000002 -0.000004 -16.847831 -3.389320 37.689510 0.804700 -2.839622 31.702921 1.414408 -3.648400 42.167054 0.000000 -0.000000 0.000001 -35.003958 0.411661 27.161711 46.392865 1.228703 -7.361072 -9.551803 -7.366591 -12.771377 -3.122896 -12.687636 -0.842929 -0.000000 0.000000 0.000000 -39.394663 -7.592898 -24.633957 39.069942 5.068087 -2.953214 -1.571879 6.567931 18.479703 -8.998726 9.213503 9.978697 0.000000 0.000000 -0.000000 
